<svg width="177" height="62" viewBox="0 0 177 62" fill="none" xmlns="http://www.w3.org/2000/svg">
<g clip-path="url(#clip0)">
<rect width="177" height="62" fill="black" fill-opacity="0"/>
<rect width="177" height="62" rx="8" fill="#1452F5"/>
<path d="M13.2373 13.1357V23H14.7686V19.6777H17.0518C18.9863 19.6777 20.3535 18.3516 20.3535 16.4238C20.3535 14.4688 19.0273 13.1357 17.0996 13.1357H13.2373ZM14.7686 14.4893H16.6963C18.043 14.4893 18.7881 15.1729 18.7881 16.4238C18.7881 17.6475 18.0156 18.3311 16.6963 18.3311H14.7686V14.4893Z" fill="white"/>
<path d="M24.0384 21.8857C23.2386 21.8857 22.6575 21.4961 22.6575 20.8262C22.6575 20.1699 23.1223 19.8213 24.1477 19.7529L25.9661 19.6367V20.2588C25.9661 21.1816 25.1458 21.8857 24.0384 21.8857ZM23.6624 23.123C24.6399 23.123 25.4534 22.6992 25.8977 21.9541H26.0139V23H27.429V17.9141C27.429 16.3418 26.3763 15.4121 24.51 15.4121C22.8216 15.4121 21.6184 16.2324 21.468 17.5107H22.8899C23.054 16.9844 23.6214 16.6836 24.4417 16.6836C25.4466 16.6836 25.9661 17.1279 25.9661 17.9141V18.5566L23.9495 18.6729C22.179 18.7822 21.1809 19.5547 21.1809 20.8945C21.1809 22.2549 22.2268 23.123 23.6624 23.123Z" fill="white"/>
<path d="M29.733 25.7002C31.2505 25.7002 31.9546 25.1191 32.5904 23.3076L35.3658 15.5557H33.8072L31.9478 21.4688H31.8316L29.9654 15.5557H28.3658L31.0591 23.0273L30.9498 23.3896C30.6968 24.1416 30.3004 24.4287 29.6031 24.4287C29.4664 24.4287 29.2408 24.4219 29.1246 24.4014V25.666C29.2613 25.6865 29.6099 25.7002 29.733 25.7002Z" fill="white"/>
<path d="M49.8312 15.5557H48.3614L47.0353 21.2363H46.9191L45.3878 15.5557H43.9796L42.4484 21.2363H42.339L41.006 15.5557H39.5157L41.5665 23H43.0773L44.6085 17.5176H44.7247L46.2628 23H47.7872L49.8312 15.5557Z" fill="white"/>
<path d="M51.0961 23H52.559V15.5557H51.0961V23ZM51.8275 14.25C52.3744 14.25 52.7777 13.8604 52.7777 13.3545C52.7777 12.8418 52.3744 12.4521 51.8275 12.4521C51.2807 12.4521 50.8773 12.8418 50.8773 13.3545C50.8773 13.8604 51.2807 14.25 51.8275 14.25Z" fill="white"/>
<path d="M54.9587 13.7031V15.5898H53.7761V16.8271H54.9587V21.0312C54.9587 22.4668 55.6081 23.041 57.2419 23.041C57.529 23.041 57.8024 23.0068 58.0417 22.9658V21.7422C57.8366 21.7627 57.7067 21.7764 57.4811 21.7764C56.7497 21.7764 56.4284 21.4346 56.4284 20.6553V16.8271H58.0417V15.5898H56.4284V13.7031H54.9587Z" fill="white"/>
<path d="M59.5595 23H61.0293V18.6523C61.0293 17.5244 61.6992 16.7656 62.9023 16.7656C63.9414 16.7656 64.4951 17.3672 64.4951 18.5566V23H65.9648V18.1943C65.9648 16.4238 64.9873 15.4189 63.4013 15.4189C62.2802 15.4189 61.4941 15.918 61.1318 16.752H61.0156V12.6504H59.5595V23Z" fill="white"/>
<rect width="172" height="49.7571" fill="black" fill-opacity="0" transform="translate(1 16)"/>
<rect width="172" height="49.7571" fill="black" fill-opacity="0" transform="translate(1 16)"/>
<rect width="147.425" height="24.3305" fill="black" fill-opacity="0" transform="translate(13.2857 28.9)"/>
<rect width="147.425" height="24.3305" fill="black" fill-opacity="0" transform="translate(13.2857 28.9)"/>
<rect width="147.425" height="24.3305" fill="black" fill-opacity="0" transform="translate(13.2857 28.9)"/>
<path d="M21.5336 44.8328C21.84 45.5032 22.2354 46.1087 22.7074 46.6394C21.6667 47.1993 20.5761 47.449 19.3872 47.449C15.8515 47.449 13.2857 45.1192 13.2857 41.4006C13.2857 37.6557 15.9825 35.3258 19.3872 35.3258C20.5988 35.3258 21.5543 35.5889 22.5169 36.1034C22.068 36.6546 21.6977 37.28 21.4164 37.9684C20.8356 37.7358 20.2378 37.63 19.6222 37.63C17.5273 37.63 15.9037 38.9655 15.9037 41.4006C15.9037 43.7048 17.4752 45.1713 19.7275 45.1713C20.3727 45.1713 20.9685 45.0545 21.5336 44.8328ZM28.6443 35.3258C32.1266 35.3258 34.6405 37.7874 34.6405 41.4006C34.6405 44.9882 32.1266 47.449 28.6443 47.449C25.1884 47.449 22.6747 44.9882 22.6747 41.4006C22.6747 37.7874 25.1884 35.3258 28.6443 35.3258ZM28.6443 37.5514C26.7068 37.5514 25.2927 39.0443 25.2927 41.4006C25.2927 43.7315 26.7068 45.2234 28.6443 45.2234C30.6349 45.2234 32.0226 43.7315 32.0226 41.4006C32.0226 39.0443 30.6349 37.5514 28.6443 37.5514ZM36.2906 47.1873V35.5874H38.8821V47.1873H36.2906ZM35.9495 32.0263C35.9495 31.1362 36.7096 30.4292 37.5732 30.4292C38.4375 30.4292 39.1968 31.1362 39.1968 32.0263C39.1968 32.943 38.4375 33.6766 37.5732 33.6766C36.7096 33.6766 35.9495 32.943 35.9495 32.0263ZM41.1435 36.3211C42.7672 35.6927 44.7578 35.3258 46.4591 35.3258C49.4183 35.3258 51.3036 36.4518 51.3036 39.7248V47.1873H48.7378V39.9608C48.7378 38.285 47.6903 37.6821 46.2497 37.6821C45.333 37.6821 44.4175 37.813 43.736 38.0225V47.1873H41.1435V36.3211ZM53.4743 29.3818H56.0658V35.9021C56.6156 35.614 57.6895 35.3259 58.7103 35.3259C62.0621 35.3259 64.5758 37.4727 64.5758 41.1912C64.5758 44.9352 62.0885 47.4489 57.7948 47.4489C56.119 47.4489 54.6527 47.1086 53.4743 46.6898V29.3818ZM56.0658 44.9883C56.5635 45.1447 57.2185 45.2233 57.8724 45.2233C60.2554 45.2233 61.9578 43.9144 61.9578 41.2433C61.9578 38.9911 60.3606 37.6557 58.3967 37.6557C57.3757 37.6557 56.59 37.9182 56.0658 38.2063V44.9883ZM72.0638 39.4102C72.0638 38.1532 71.1206 37.578 69.8382 37.578C68.5027 37.578 67.4552 37.9704 66.4866 38.5202V36.2679C67.5074 35.6927 68.8164 35.3257 70.2573 35.3257C72.7964 35.3257 74.6032 36.3732 74.6032 39.2793V46.9513C73.5036 47.2394 71.9331 47.4233 70.624 47.4233C67.6126 47.4233 65.4127 46.5068 65.4127 43.8878C65.4127 41.5315 67.4288 40.3798 70.7804 40.3798H72.0638V39.4102ZM72.0638 42.1078H70.9642C69.1567 42.1078 67.9785 42.6309 67.9785 43.8092C67.9785 45.0138 69.0789 45.485 70.6496 45.485C71.043 45.485 71.5928 45.4329 72.0638 45.3541V42.1078ZM76.4884 44.0452C77.5623 44.8566 78.8448 45.3543 80.0229 45.3543C81.1756 45.3543 81.9349 44.9617 81.9349 44.0452C81.9349 43.102 81.2542 42.7618 79.7615 42.3694C77.3528 41.8196 76.3311 40.851 76.3311 38.8347C76.3311 36.4774 78.1121 35.3259 80.4684 35.3259C81.7775 35.3259 82.8249 35.614 83.7936 36.2159V38.5987C82.7728 37.8661 81.7775 37.4206 80.5472 37.4206C79.4212 37.4206 78.8193 37.9703 78.8193 38.7296C78.8193 39.4887 79.3159 39.8821 80.6515 40.2481C83.2969 40.8243 84.4486 41.8196 84.4486 43.9144C84.4486 46.3493 82.5897 47.4489 80.076 47.4489C78.714 47.4489 77.3528 47.083 76.4884 46.5067V44.0452ZM87.9965 41.9769V42.0291C88.1539 44.0973 89.9339 45.2233 91.7405 45.2233C93.3377 45.2233 94.4902 44.8566 95.6419 44.0973V46.376C94.5944 47.1086 93.0496 47.4489 91.5576 47.4489C87.9444 47.4489 85.4828 45.1447 85.4828 41.4793C85.4828 37.7874 87.8912 35.3259 91.0864 35.3259C94.4637 35.3259 96.0609 37.4993 96.0609 40.6671V41.9769H87.9965ZM93.6258 40.3011C93.5737 38.4936 92.6836 37.4993 91.0078 37.4993C89.5149 37.4993 88.4155 38.5467 88.0751 40.3011H93.6258Z" fill="white"/>
<path d="M106.151 29.3216C106.151 29.0887 105.963 28.9 105.73 28.9C105.497 28.9 105.308 29.0887 105.308 29.3216V52.809C105.308 53.0418 105.497 53.2305 105.73 53.2305C105.963 53.2305 106.151 53.0418 106.151 52.809V29.3216Z" fill="white"/>
<rect width="45.9327" height="13.4637" fill="black" fill-opacity="0" transform="translate(114.778 33.9395)"/>
<rect width="45.9327" height="13.4637" fill="black" fill-opacity="0" transform="translate(114.778 33.9395)"/>
<rect width="45.9327" height="13.4637" fill="black" fill-opacity="0" transform="translate(114.778 33.9395)"/>
<path d="M121.334 35.6176H122.758L125.334 46.0959L128.066 35.6176H129.256L126.115 47.2081H124.514L122.017 37.003L119.519 47.2081H117.919L114.778 35.6176H116.027L118.739 46.0959L121.334 35.6176ZM135.129 42.2909V41.2568C135.129 40.1641 134.427 39.5982 133.334 39.5982C132.359 39.5982 131.617 39.8714 130.837 40.2811V39.1689C131.559 38.7787 132.476 38.5055 133.471 38.5055C135.188 38.5055 136.3 39.2665 136.3 41.1787V47.052C135.52 47.2667 134.603 47.3642 133.881 47.3642C131.578 47.3642 130.037 46.6422 130.037 44.8471C130.037 43.169 131.578 42.2909 134.173 42.2909H135.129ZM135.129 46.2715V43.2471H134.251C132.495 43.2471 131.207 43.7154 131.207 44.8471C131.207 45.9788 132.378 46.3886 133.939 46.3886C134.29 46.3886 134.72 46.3496 135.129 46.2715ZM140.261 33.9395V47.2081H139.09V33.9395H140.261ZM144.359 33.9395V47.2081H143.188V33.9395H144.359ZM154.252 43.0129H147.813V43.0519C147.813 45.1398 149.315 46.3691 150.974 46.3691C152.183 46.3691 153.022 46.0569 153.881 45.413V46.5837C153.12 47.1496 152.027 47.4032 150.974 47.4032C148.515 47.4032 146.642 45.7252 146.642 42.9544C146.642 40.3982 148.398 38.5055 150.681 38.5055C152.827 38.5055 154.252 39.7933 154.252 42.2129V43.0129ZM147.891 42.0373H153.081C153.003 40.2616 152.047 39.5397 150.622 39.5397C149.296 39.5397 148.222 40.4372 147.891 42.0373ZM155.422 39.6958V38.7006H156.73V36.6323H157.901V38.7006H160.301V39.6958H157.901V44.8861C157.901 45.9788 158.33 46.4081 159.13 46.4081C159.676 46.4081 160.125 46.2325 160.71 45.9398V46.974C160.203 47.2276 159.618 47.4032 158.876 47.4032C157.647 47.4032 156.73 46.7593 156.73 45.0032V39.6958H155.422Z" fill="white"/>
<rect width="45.9327" height="13.4637" fill="black" fill-opacity="0" transform="translate(114.778 33.9395)"/>
<path d="M121.334 35.6176H122.758L125.334 46.0959L128.066 35.6176H129.256L126.115 47.2081H124.514L122.017 37.003L119.519 47.2081H117.919L114.778 35.6176H116.027L118.739 46.0959L121.334 35.6176ZM135.129 42.2909V41.2568C135.129 40.1641 134.427 39.5982 133.334 39.5982C132.359 39.5982 131.617 39.8714 130.837 40.2811V39.1689C131.559 38.7787 132.476 38.5055 133.471 38.5055C135.188 38.5055 136.3 39.2665 136.3 41.1787V47.052C135.52 47.2667 134.603 47.3642 133.881 47.3642C131.578 47.3642 130.037 46.6422 130.037 44.8471C130.037 43.169 131.578 42.2909 134.173 42.2909H135.129ZM135.129 46.2715V43.2471H134.251C132.495 43.2471 131.207 43.7154 131.207 44.8471C131.207 45.9788 132.378 46.3886 133.939 46.3886C134.29 46.3886 134.72 46.3496 135.129 46.2715ZM140.261 33.9395V47.2081H139.09V33.9395H140.261ZM144.359 33.9395V47.2081H143.188V33.9395H144.359ZM154.252 43.0129H147.813V43.0519C147.813 45.1398 149.315 46.3691 150.974 46.3691C152.183 46.3691 153.022 46.0569 153.881 45.413V46.5837C153.12 47.1496 152.027 47.4032 150.974 47.4032C148.515 47.4032 146.642 45.7252 146.642 42.9544C146.642 40.3982 148.398 38.5055 150.681 38.5055C152.827 38.5055 154.252 39.7933 154.252 42.2129V43.0129ZM147.891 42.0373H153.081C153.003 40.2616 152.047 39.5397 150.622 39.5397C149.296 39.5397 148.222 40.4372 147.891 42.0373ZM155.422 39.6958V38.7006H156.73V36.6323H157.901V38.7006H160.301V39.6958H157.901V44.8861C157.901 45.9788 158.33 46.4081 159.13 46.4081C159.676 46.4081 160.125 46.2325 160.71 45.9398V46.974C160.203 47.2276 159.618 47.4032 158.876 47.4032C157.647 47.4032 156.73 46.7593 156.73 45.0032V39.6958H155.422Z" fill="white"/>
</g>
<defs>
<clipPath id="clip0">
<rect width="177" height="62" fill="white"/>
</clipPath>
</defs>
</svg>
